  <svg role="img" viewBox="0 0 24 24" xmlns="http://www.w3.org/2000/svg"
  class="w-20 h-20"
  >
    <title></title>
    <path d="M22.394 6c-.167-.29-.398-.543-.652-.69L12.926.22c-.509-.294-1.34-.294-1.848 0L2.26 5.31c-.508.293-.923 1.013-.923 1.6v10.18c0 .294.104.62.271.91.167.29.398.543.652.69l8.816 5.09c.508.293 1.34.293 1.848 0l8.816-5.09c.254-.147.485-.4.652-.69.167-.29.27-.616.27-.91V6.91c.003-.294-.1-.62-.268-.91z" fill="#68217A"/>
    <text x="12" y="17" text-anchor="middle" font-family="Segoe UI, Arial, sans-serif"
          font-size="11" font-weight="bold" fill="white">
      C#
    </text>
  </svg>